<svg xmlns="http://www.w3.org/2000/svg" xmlns:svg="http://www.w3.org/2000/svg" xmlns:xlink="http://www.w3.org/1999/xlink" id="svg11037" width="16" height="16" version="1.1"><defs id="defs11039"><clipPath id="clipPath3009" clipPathUnits="userSpaceOnUse"><path id="path3011" fill="#fff" d="m -2,956.36 h -96 v 33.562 l 96,25.687 v -59.25 z" opacity=".15"/></clipPath><linearGradient id="linearGradient3617" x1="48" x2="48" y1="90" y2="5.988" gradientUnits="userSpaceOnUse"><stop id="stop4083" offset="0" stop-color="#8c8c8c"/><stop id="stop4085" offset="1" stop-color="#dcdcdc"/></linearGradient><clipPath id="clipPath4194-1"><rect id="rect4196-1" width="84" height="84" x="6" y="6" fill="#f0f" rx="6" ry="6"/></clipPath><linearGradient id="linearGradient4077-0" x1="48.234" x2="126.14" y1="48.047" y2="66.233" gradientUnits="userSpaceOnUse" xlink:href="#linearGradient4071-3"/><linearGradient id="linearGradient4071-3"><stop id="stop4073-8" offset="0"/><stop id="stop4075-4" offset="1" stop-opacity="0"/></linearGradient><linearGradient id="linearGradient4069-9" x1="48.055" x2="126.67" y1="48.032" y2="62.839" gradientUnits="userSpaceOnUse" xlink:href="#linearGradient4071-3"/><linearGradient id="linearGradient4061-6" x1="47.997" x2="127.05" y1="48.029" y2="60.29" gradientUnits="userSpaceOnUse" xlink:href="#linearGradient4071-3"/><linearGradient id="linearGradient4053-2" x1="47.998" x2="127.42" y1="48.029" y2="57.665" gradientUnits="userSpaceOnUse" xlink:href="#linearGradient4071-3"/><radialGradient id="radialGradient3814-9" cx="48.41" cy="47.598" r="30.64" gradientTransform="matrix(1,0,0,0.98496,-30,0.71591)" gradientUnits="userSpaceOnUse"><stop id="stop3798-4" offset="0" stop-color="#fff" stop-opacity="0"/><stop id="stop3800-9" offset="1" stop-color="#fff"/></radialGradient><radialGradient id="radialGradient5008" cx="48.265" cy="47.887" r="28.879" gradientTransform="matrix(1,0,0,1.0138,-30,-0.66141)" gradientUnits="userSpaceOnUse"><stop id="stop3782-4" offset="0" stop-opacity="0"/><stop id="stop3784-9" offset="1"/></radialGradient><linearGradient id="linearGradient4145-0" x1="48.234" x2="126.14" y1="48.047" y2="66.233" gradientUnits="userSpaceOnUse" xlink:href="#linearGradient4115-2"/><linearGradient id="linearGradient4115-2"><stop id="stop4117-3" offset="0" stop-color="#fff"/><stop id="stop4119-6" offset="1" stop-color="#fff" stop-opacity="0"/></linearGradient><linearGradient id="linearGradient4137-7" x1="48.055" x2="126.67" y1="48.032" y2="62.839" gradientUnits="userSpaceOnUse" xlink:href="#linearGradient4115-2"/><linearGradient id="linearGradient4129-8" x1="47.997" x2="127.05" y1="48.029" y2="60.29" gradientUnits="userSpaceOnUse" xlink:href="#linearGradient4115-2"/><linearGradient id="linearGradient4121-6" x1="47.998" x2="127.42" y1="48.029" y2="57.665" gradientUnits="userSpaceOnUse" xlink:href="#linearGradient4115-2"/><linearGradient id="linearGradient3935" x1="38" x2="38" y1="36" y2="68" gradientTransform="translate(4,-4)" gradientUnits="userSpaceOnUse"><stop id="stop4283-9" offset="0" stop-color="#1e1e1e"/><stop id="stop4285-8" offset="1" stop-color="#505050"/></linearGradient><clipPath id="clipPath3280" clipPathUnits="userSpaceOnUse"><rect id="rect3282" width="84" height="84" x="6" y="6" fill="url(#linearGradient3284)" rx="22.826" ry="22.826"/></clipPath><linearGradient id="linearGradient3284" x1="48" x2="48" y1="962.62" y2="1046.1" gradientTransform="matrix(1.05,0,0,1.05,-2.4,-1006.6)" gradientUnits="userSpaceOnUse"><stop id="stop3797" offset="0" stop-color="#13a6fd"/><stop id="stop3799" offset="1" stop-color="#2975b6"/></linearGradient><linearGradient id="linearGradient3058" x1="48.234" x2="126.14" y1="48.047" y2="66.233" gradientUnits="userSpaceOnUse" xlink:href="#linearGradient4071-3"/><linearGradient id="linearGradient3060" x1="48.055" x2="126.67" y1="48.032" y2="62.839" gradientUnits="userSpaceOnUse" xlink:href="#linearGradient4071-3"/><linearGradient id="linearGradient3062" x1="47.997" x2="127.05" y1="48.029" y2="60.29" gradientUnits="userSpaceOnUse" xlink:href="#linearGradient4071-3"/><linearGradient id="linearGradient3064" x1="47.998" x2="127.42" y1="48.029" y2="57.665" gradientUnits="userSpaceOnUse" xlink:href="#linearGradient4071-3"/><linearGradient id="linearGradient3066" x1="48.234" x2="126.14" y1="48.047" y2="66.233" gradientUnits="userSpaceOnUse" xlink:href="#linearGradient4115-2"/><linearGradient id="linearGradient3068" x1="48.055" x2="126.67" y1="48.032" y2="62.839" gradientUnits="userSpaceOnUse" xlink:href="#linearGradient4115-2"/><linearGradient id="linearGradient3070" x1="47.997" x2="127.05" y1="48.029" y2="60.29" gradientUnits="userSpaceOnUse" xlink:href="#linearGradient4115-2"/><linearGradient id="linearGradient3072" x1="47.998" x2="127.42" y1="48.029" y2="57.665" gradientUnits="userSpaceOnUse" xlink:href="#linearGradient4115-2"/><linearGradient id="linearGradient3074" x1="48.234" x2="126.14" y1="48.047" y2="66.233" gradientUnits="userSpaceOnUse" xlink:href="#linearGradient4071-3"/><linearGradient id="linearGradient3076" x1="48.055" x2="126.67" y1="48.032" y2="62.839" gradientUnits="userSpaceOnUse" xlink:href="#linearGradient4071-3"/><linearGradient id="linearGradient3078" x1="47.997" x2="127.05" y1="48.029" y2="60.29" gradientUnits="userSpaceOnUse" xlink:href="#linearGradient4071-3"/><linearGradient id="linearGradient3080" x1="47.998" x2="127.42" y1="48.029" y2="57.665" gradientUnits="userSpaceOnUse" xlink:href="#linearGradient4071-3"/><linearGradient id="linearGradient3122" x1="48" x2="48" y1="90" y2="5.988" gradientUnits="userSpaceOnUse" xlink:href="#linearGradient3617"/><linearGradient id="linearGradient3124" x1="48.234" x2="126.14" y1="48.047" y2="66.233" gradientUnits="userSpaceOnUse" xlink:href="#linearGradient4071-3"/><linearGradient id="linearGradient3126" x1="48.055" x2="126.67" y1="48.032" y2="62.839" gradientUnits="userSpaceOnUse" xlink:href="#linearGradient4071-3"/><linearGradient id="linearGradient3128" x1="47.997" x2="127.05" y1="48.029" y2="60.29" gradientUnits="userSpaceOnUse" xlink:href="#linearGradient4071-3"/><linearGradient id="linearGradient3130" x1="47.998" x2="127.42" y1="48.029" y2="57.665" gradientUnits="userSpaceOnUse" xlink:href="#linearGradient4071-3"/><radialGradient id="radialGradient3132" cx="48.41" cy="47.598" r="30.64" gradientTransform="matrix(1,0,0,0.98496,-30,0.71591)" gradientUnits="userSpaceOnUse" xlink:href="#radialGradient3814-9"/><radialGradient id="radialGradient3134" cx="48.265" cy="47.887" r="28.879" gradientTransform="matrix(1,0,0,1.0138,-30,-0.66141)" gradientUnits="userSpaceOnUse" xlink:href="#radialGradient5008"/><linearGradient id="linearGradient3136" x1="48.234" x2="126.14" y1="48.047" y2="66.233" gradientUnits="userSpaceOnUse" xlink:href="#linearGradient4115-2"/><linearGradient id="linearGradient3138" x1="48.055" x2="126.67" y1="48.032" y2="62.839" gradientUnits="userSpaceOnUse" xlink:href="#linearGradient4115-2"/><linearGradient id="linearGradient3140" x1="47.997" x2="127.05" y1="48.029" y2="60.29" gradientUnits="userSpaceOnUse" xlink:href="#linearGradient4115-2"/><linearGradient id="linearGradient3142" x1="47.998" x2="127.42" y1="48.029" y2="57.665" gradientUnits="userSpaceOnUse" xlink:href="#linearGradient4115-2"/><linearGradient id="linearGradient3144" x1="48.234" x2="126.14" y1="48.047" y2="66.233" gradientUnits="userSpaceOnUse" xlink:href="#linearGradient4071-3"/><linearGradient id="linearGradient3146" x1="48.055" x2="126.67" y1="48.032" y2="62.839" gradientUnits="userSpaceOnUse" xlink:href="#linearGradient4071-3"/><linearGradient id="linearGradient3148" x1="47.997" x2="127.05" y1="48.029" y2="60.29" gradientUnits="userSpaceOnUse" xlink:href="#linearGradient4071-3"/><linearGradient id="linearGradient3150" x1="47.998" x2="127.42" y1="48.029" y2="57.665" gradientUnits="userSpaceOnUse" xlink:href="#linearGradient4071-3"/><linearGradient id="linearGradient3152" x1="48.234" x2="126.14" y1="48.047" y2="66.233" gradientUnits="userSpaceOnUse" xlink:href="#linearGradient4071-3"/><linearGradient id="linearGradient3154" x1="48.055" x2="126.67" y1="48.032" y2="62.839" gradientUnits="userSpaceOnUse" xlink:href="#linearGradient4071-3"/><linearGradient id="linearGradient3156" x1="47.997" x2="127.05" y1="48.029" y2="60.29" gradientUnits="userSpaceOnUse" xlink:href="#linearGradient4071-3"/><linearGradient id="linearGradient3158" x1="47.998" x2="127.42" y1="48.029" y2="57.665" gradientUnits="userSpaceOnUse" xlink:href="#linearGradient4071-3"/><linearGradient id="linearGradient3160" x1="48.234" x2="126.14" y1="48.047" y2="66.233" gradientUnits="userSpaceOnUse" xlink:href="#linearGradient4115-2"/><linearGradient id="linearGradient3162" x1="48.055" x2="126.67" y1="48.032" y2="62.839" gradientUnits="userSpaceOnUse" xlink:href="#linearGradient4115-2"/><linearGradient id="linearGradient3164" x1="47.997" x2="127.05" y1="48.029" y2="60.29" gradientUnits="userSpaceOnUse" xlink:href="#linearGradient4115-2"/><linearGradient id="linearGradient3166" x1="47.998" x2="127.42" y1="48.029" y2="57.665" gradientUnits="userSpaceOnUse" xlink:href="#linearGradient4115-2"/><linearGradient id="linearGradient3168" x1="38" x2="38" y1="36" y2="68" gradientTransform="translate(4,-4)" gradientUnits="userSpaceOnUse" xlink:href="#linearGradient3935"/><linearGradient id="linearGradient3208" x1="38" x2="38" y1="36" y2="68" gradientTransform="translate(4,-4)" gradientUnits="userSpaceOnUse" xlink:href="#linearGradient3935"/><linearGradient id="linearGradient3215" x1="38" x2="38" y1="36" y2="68" gradientTransform="matrix(1.0952,0,0,1.0952,-0.1906,-8.9508)" gradientUnits="userSpaceOnUse" xlink:href="#linearGradient3935"/></defs><metadata id="metadata11042"/><path id="rect3156" fill="#fff" d="m 7.9377121,2.8456264 a 0.43772778,0.31149762 0 0 0 -0.320849,0.160424 l -4.554277,5.623775 a 0.43772778,0.31149762 0 0 0 -0.06239,0.1426 0.43772778,0.31149762 0 0 0 0.06239,0.169337 0.43772778,0.31149762 0 0 0 -0.06239,0.1426 0.43772778,0.31149762 0 0 0 0.436712,0.320849 l 9.1174669,0 a 0.43772778,0.31149762 0 0 0 0.383237,-0.463449 0.43772778,0.31149762 0 0 0 0,-0.311937 L 8.3833341,3.0060504 a 0.43772778,0.31149762 0 0 0 -0.445624,-0.160424 z m -4.31364,7.4953946 c -0.346084,0 -0.623874,0.27779 -0.623874,0.623874 l 0,1.25666 0,0.311936 c 0,0.346085 0.27779,0.623874 0.623874,0.623874 l 8.7520549,0 c 0.346085,0 0.623874,-0.277789 0.623874,-0.623874 l 0,-0.311936 0,-1.25666 c 0,-0.346084 -0.277789,-0.623874 -0.623874,-0.623874 l -8.7520549,0 z" color="#000"/><rect id="rect3218" width="16" height="16" x="0" y="0" fill="none" fill-opacity="1" stroke="none"/></svg>