<svg xmlns="http://www.w3.org/2000/svg" xmlns:svg="http://www.w3.org/2000/svg" xmlns:xlink="http://www.w3.org/1999/xlink" id="svg11037" width="16" height="16" version="1.1"><defs id="defs11039"><clipPath id="clipPath3009" clipPathUnits="userSpaceOnUse"><path id="path3011" fill="#fff" d="m -2,956.36 h -96 v 33.562 l 96,25.687 v -59.25 z" opacity=".15"/></clipPath><linearGradient id="linearGradient3617-0" x1="48" x2="48" y1="90" y2="5.988" gradientUnits="userSpaceOnUse"><stop id="stop4083-69" offset="0" stop-color="#8c8c8c"/><stop id="stop4085-85" offset="1" stop-color="#dcdcdc"/></linearGradient><clipPath id="clipPath4194-1-92"><rect id="rect4196-1-4" width="84" height="84" x="6" y="6" fill="#f0f" rx="6" ry="6"/></clipPath><linearGradient id="linearGradient4077-0-2" x1="48.234" x2="126.14" y1="48.047" y2="66.233" gradientUnits="userSpaceOnUse" xlink:href="#linearGradient4071-3-97"/><linearGradient id="linearGradient4071-3-97"><stop id="stop4073-8-0" offset="0"/><stop id="stop4075-4-7" offset="1" stop-opacity="0"/></linearGradient><linearGradient id="linearGradient4069-9-14" x1="48.055" x2="126.67" y1="48.032" y2="62.839" gradientUnits="userSpaceOnUse" xlink:href="#linearGradient4071-3-97"/><linearGradient id="linearGradient4061-6-2" x1="47.997" x2="127.05" y1="48.029" y2="60.29" gradientUnits="userSpaceOnUse" xlink:href="#linearGradient4071-3-97"/><linearGradient id="linearGradient4053-2-3" x1="47.998" x2="127.42" y1="48.029" y2="57.665" gradientUnits="userSpaceOnUse" xlink:href="#linearGradient4071-3-97"/><radialGradient id="radialGradient3814-9-97" cx="48.41" cy="47.598" r="30.64" gradientTransform="matrix(1,0,0,0.98496,-30,0.71591)" gradientUnits="userSpaceOnUse"><stop id="stop3798-4-29" offset="0" stop-color="#fff" stop-opacity="0"/><stop id="stop3800-9-5" offset="1" stop-color="#fff"/></radialGradient><radialGradient id="radialGradient5008-8" cx="48.265" cy="47.887" r="28.879" gradientTransform="matrix(1,0,0,1.0138,-30,-0.66141)" gradientUnits="userSpaceOnUse"><stop id="stop3782-4-36" offset="0" stop-opacity="0"/><stop id="stop3784-9-07" offset="1"/></radialGradient><linearGradient id="linearGradient4145-0-24" x1="48.234" x2="126.14" y1="48.047" y2="66.233" gradientUnits="userSpaceOnUse" xlink:href="#linearGradient4115-2-7"/><linearGradient id="linearGradient4115-2-7"><stop id="stop4117-3-94" offset="0" stop-color="#fff"/><stop id="stop4119-6-40" offset="1" stop-color="#fff" stop-opacity="0"/></linearGradient><linearGradient id="linearGradient4137-7-0" x1="48.055" x2="126.67" y1="48.032" y2="62.839" gradientUnits="userSpaceOnUse" xlink:href="#linearGradient4115-2-7"/><linearGradient id="linearGradient4129-8-8" x1="47.997" x2="127.05" y1="48.029" y2="60.29" gradientUnits="userSpaceOnUse" xlink:href="#linearGradient4115-2-7"/><linearGradient id="linearGradient4121-6-1" x1="47.998" x2="127.42" y1="48.029" y2="57.665" gradientUnits="userSpaceOnUse" xlink:href="#linearGradient4115-2-7"/><linearGradient id="linearGradient3960" x1="9.397" x2="9.397" y1="5.547" y2="19.983" gradientTransform="matrix(3.3282,0,0,2.7042,15,16)" gradientUnits="userSpaceOnUse"><stop id="stop4283-9-9" offset="0" stop-color="#1e1e1e"/><stop id="stop4285-8-0" offset="1" stop-color="#505050"/></linearGradient><clipPath id="clipPath5042" clipPathUnits="userSpaceOnUse"><rect id="rect5044" width="84" height="84" x="6" y="6" fill="url(#linearGradient5046)" rx="22.826" ry="22.826"/></clipPath><linearGradient id="linearGradient5046" x1="48" x2="48" y1="962.62" y2="1046.1" gradientTransform="matrix(1.05,0,0,1.05,-2.4,-1006.6)" gradientUnits="userSpaceOnUse"><stop id="stop3797" offset="0" stop-color="#13a6fd"/><stop id="stop3799" offset="1" stop-color="#2975b6"/></linearGradient><linearGradient id="linearGradient3058" x1="48.234" x2="126.14" y1="48.047" y2="66.233" gradientUnits="userSpaceOnUse" xlink:href="#linearGradient4071-3-97"/><linearGradient id="linearGradient3060" x1="48.055" x2="126.67" y1="48.032" y2="62.839" gradientUnits="userSpaceOnUse" xlink:href="#linearGradient4071-3-97"/><linearGradient id="linearGradient3062" x1="47.997" x2="127.05" y1="48.029" y2="60.29" gradientUnits="userSpaceOnUse" xlink:href="#linearGradient4071-3-97"/><linearGradient id="linearGradient3064" x1="47.998" x2="127.42" y1="48.029" y2="57.665" gradientUnits="userSpaceOnUse" xlink:href="#linearGradient4071-3-97"/><linearGradient id="linearGradient3066" x1="48.234" x2="126.14" y1="48.047" y2="66.233" gradientUnits="userSpaceOnUse" xlink:href="#linearGradient4115-2-7"/><linearGradient id="linearGradient3068" x1="48.055" x2="126.67" y1="48.032" y2="62.839" gradientUnits="userSpaceOnUse" xlink:href="#linearGradient4115-2-7"/><linearGradient id="linearGradient3070" x1="47.997" x2="127.05" y1="48.029" y2="60.29" gradientUnits="userSpaceOnUse" xlink:href="#linearGradient4115-2-7"/><linearGradient id="linearGradient3072" x1="47.998" x2="127.42" y1="48.029" y2="57.665" gradientUnits="userSpaceOnUse" xlink:href="#linearGradient4115-2-7"/><linearGradient id="linearGradient3074" x1="48.234" x2="126.14" y1="48.047" y2="66.233" gradientUnits="userSpaceOnUse" xlink:href="#linearGradient4071-3-97"/><linearGradient id="linearGradient3076" x1="48.055" x2="126.67" y1="48.032" y2="62.839" gradientUnits="userSpaceOnUse" xlink:href="#linearGradient4071-3-97"/><linearGradient id="linearGradient3078" x1="47.997" x2="127.05" y1="48.029" y2="60.29" gradientUnits="userSpaceOnUse" xlink:href="#linearGradient4071-3-97"/><linearGradient id="linearGradient3080" x1="47.998" x2="127.42" y1="48.029" y2="57.665" gradientUnits="userSpaceOnUse" xlink:href="#linearGradient4071-3-97"/><linearGradient id="linearGradient3122" x1="48" x2="48" y1="90" y2="5.988" gradientUnits="userSpaceOnUse" xlink:href="#linearGradient3617-0"/><linearGradient id="linearGradient3124" x1="48.234" x2="126.14" y1="48.047" y2="66.233" gradientUnits="userSpaceOnUse" xlink:href="#linearGradient4071-3-97"/><linearGradient id="linearGradient3126" x1="48.055" x2="126.67" y1="48.032" y2="62.839" gradientUnits="userSpaceOnUse" xlink:href="#linearGradient4071-3-97"/><linearGradient id="linearGradient3128" x1="47.997" x2="127.05" y1="48.029" y2="60.29" gradientUnits="userSpaceOnUse" xlink:href="#linearGradient4071-3-97"/><linearGradient id="linearGradient3130" x1="47.998" x2="127.42" y1="48.029" y2="57.665" gradientUnits="userSpaceOnUse" xlink:href="#linearGradient4071-3-97"/><radialGradient id="radialGradient3132" cx="48.41" cy="47.598" r="30.64" gradientTransform="matrix(1,0,0,0.98496,-30,0.71591)" gradientUnits="userSpaceOnUse" xlink:href="#radialGradient3814-9-97"/><radialGradient id="radialGradient3134" cx="48.265" cy="47.887" r="28.879" gradientTransform="matrix(1,0,0,1.0138,-30,-0.66141)" gradientUnits="userSpaceOnUse" xlink:href="#radialGradient5008-8"/><linearGradient id="linearGradient3136" x1="48.234" x2="126.14" y1="48.047" y2="66.233" gradientUnits="userSpaceOnUse" xlink:href="#linearGradient4115-2-7"/><linearGradient id="linearGradient3138" x1="48.055" x2="126.67" y1="48.032" y2="62.839" gradientUnits="userSpaceOnUse" xlink:href="#linearGradient4115-2-7"/><linearGradient id="linearGradient3140" x1="47.997" x2="127.05" y1="48.029" y2="60.29" gradientUnits="userSpaceOnUse" xlink:href="#linearGradient4115-2-7"/><linearGradient id="linearGradient3142" x1="47.998" x2="127.42" y1="48.029" y2="57.665" gradientUnits="userSpaceOnUse" xlink:href="#linearGradient4115-2-7"/><linearGradient id="linearGradient3144" x1="48.234" x2="126.14" y1="48.047" y2="66.233" gradientUnits="userSpaceOnUse" xlink:href="#linearGradient4071-3-97"/><linearGradient id="linearGradient3146" x1="48.055" x2="126.67" y1="48.032" y2="62.839" gradientUnits="userSpaceOnUse" xlink:href="#linearGradient4071-3-97"/><linearGradient id="linearGradient3148" x1="47.997" x2="127.05" y1="48.029" y2="60.29" gradientUnits="userSpaceOnUse" xlink:href="#linearGradient4071-3-97"/><linearGradient id="linearGradient3150" x1="47.998" x2="127.42" y1="48.029" y2="57.665" gradientUnits="userSpaceOnUse" xlink:href="#linearGradient4071-3-97"/><linearGradient id="linearGradient3152" x1="48.234" x2="126.14" y1="48.047" y2="66.233" gradientUnits="userSpaceOnUse" xlink:href="#linearGradient4071-3-97"/><linearGradient id="linearGradient3154" x1="48.055" x2="126.67" y1="48.032" y2="62.839" gradientUnits="userSpaceOnUse" xlink:href="#linearGradient4071-3-97"/><linearGradient id="linearGradient3156" x1="47.997" x2="127.05" y1="48.029" y2="60.29" gradientUnits="userSpaceOnUse" xlink:href="#linearGradient4071-3-97"/><linearGradient id="linearGradient3158" x1="47.998" x2="127.42" y1="48.029" y2="57.665" gradientUnits="userSpaceOnUse" xlink:href="#linearGradient4071-3-97"/><linearGradient id="linearGradient3160" x1="48.234" x2="126.14" y1="48.047" y2="66.233" gradientUnits="userSpaceOnUse" xlink:href="#linearGradient4115-2-7"/><linearGradient id="linearGradient3162" x1="48.055" x2="126.67" y1="48.032" y2="62.839" gradientUnits="userSpaceOnUse" xlink:href="#linearGradient4115-2-7"/><linearGradient id="linearGradient3164" x1="47.997" x2="127.05" y1="48.029" y2="60.29" gradientUnits="userSpaceOnUse" xlink:href="#linearGradient4115-2-7"/><linearGradient id="linearGradient3166" x1="47.998" x2="127.42" y1="48.029" y2="57.665" gradientUnits="userSpaceOnUse" xlink:href="#linearGradient4115-2-7"/><linearGradient id="linearGradient3168" x1="9.397" x2="9.397" y1="5.547" y2="19.983" gradientTransform="matrix(3.3282,0,0,2.7042,15,16)" gradientUnits="userSpaceOnUse" xlink:href="#linearGradient3960"/><linearGradient id="linearGradient3208" x1="9.397" x2="9.397" y1="5.547" y2="19.983" gradientTransform="matrix(3.3282,0,0,2.7042,15,16)" gradientUnits="userSpaceOnUse" xlink:href="#linearGradient3960"/></defs><metadata id="metadata11042"/><rect id="rect3221" width="16" height="16" x="0" y="0" fill="none" fill-opacity="1" stroke="none"/><path id="Symbol" fill="#fff" stroke="none" d="m 3.6579298,3.4927535 c -1.0934204,0 -1.9736839,0.8802635 -1.9736839,1.9736839 l 0,4.4736836 c 0,1.093431 0.8802635,1.973693 1.9736839,1.973693 l 1.4473679,0 c 0.00834,0 0.016408,3.85e-4 0.024669,0 0.2797362,-0.0129 0.5015784,-0.243158 0.5015784,-0.526315 l 0,-0.526315 c 0,-0.29158 -0.2347364,-0.52632 -0.5263159,-0.52632 l -1.0526307,0 c -0.4373686,0 -0.7894745,-0.352112 -0.7894745,-0.789479 l 0,-3.6842104 c 0,-0.4373686 0.3521059,-0.7894733 0.7894745,-0.7894733 l 7.8947345,0 c 0.437369,0 0.789474,0.3521047 0.789474,0.7894733 l 0,3.6842104 c 0,0.437367 -0.352105,0.789479 -0.789474,0.789479 -0.275893,-0.01286 -0.49592,0 -0.789473,0 l 0,-1.5789535 -3.947367,2.3684305 3.947367,2.368421 0,-1.578948 1.184211,0 c 1.09342,0 1.973683,-0.880262 1.973683,-1.973693 l 0,-4.4736836 c 0,-1.0934204 -0.880263,-1.9736839 -1.973683,-1.9736839 l -8.6842097,0 z"/></svg>