<svg xmlns="http://www.w3.org/2000/svg" xmlns:svg="http://www.w3.org/2000/svg" xmlns:xlink="http://www.w3.org/1999/xlink" id="svg11037" width="96" height="96" version="1.1"><defs id="defs11039"><linearGradient id="linearGradient3688-2"><stop id="stop3690-6" offset="0"/><stop id="stop3692-4" offset="1" stop-opacity="0"/></linearGradient><radialGradient id="radialGradient3071" cx="4.993" cy="43.5" r="2.5" gradientTransform="matrix(2.0038,0,0,1.4,27.988,-17.4)" gradientUnits="userSpaceOnUse" xlink:href="#linearGradient3688-2"/><radialGradient id="radialGradient3073" cx="4.993" cy="43.5" r="2.5" gradientTransform="matrix(2.0038,0,0,1.4,-20.012,-104.4)" gradientUnits="userSpaceOnUse" xlink:href="#linearGradient3688-2"/><clipPath id="clipPath3151" clipPathUnits="userSpaceOnUse"><rect id="rect3153" width="106.96" height="106.96" x="-143.62" y="-5.787" fill="#2d2d2d" rx="29.066" ry="29.066"/></clipPath><clipPath id="clipPath3009-1" clipPathUnits="userSpaceOnUse"><path id="path3011-3" fill="#fff" d="m-2 956.36h-96v33.562l96 25.687v-59.25z" opacity=".15"/></clipPath><filter id="filter3979" width="1.224" height="1.258" x="-.112" y="-.129"><feGaussianBlur id="feGaussianBlur3981" stdDeviation="2.597"/></filter><linearGradient id="linearGradient4040" x1="25.058" x2="25.058" y1="47.028" y2="39.999" gradientUnits="userSpaceOnUse"><stop id="stop3704-1" offset="0" stop-opacity="0"/><stop id="stop3710-2" offset=".5"/><stop id="stop3706-8" offset="1" stop-opacity="0"/></linearGradient><radialGradient id="radialGradient4042" cx="12.011" cy="13.195" r="20" gradientTransform="matrix(5.6342e-8,1.6801,-2.4235,1.0381e-8,51.251,962.75)" gradientUnits="userSpaceOnUse"><stop id="stop3244-9" offset="0" stop-color="#f89b7e"/><stop id="stop3246-2" offset=".262" stop-color="#e35d4f"/><stop id="stop3248-8" offset=".661" stop-color="#c6262e"/><stop id="stop3250-8" offset="1" stop-color="#690b2c"/></radialGradient><linearGradient id="linearGradient4044" x1="24" x2="24" y1="44" y2="3.899" gradientTransform="translate(6.7726,969.65)" gradientUnits="userSpaceOnUse"><stop id="stop2492" offset="0" stop-color="#791235"/><stop id="stop2494" offset="1" stop-color="#dd3b27"/></linearGradient><linearGradient id="linearGradient4046" x1="23.97" x2="23.97" y1="3.981" y2="44.024" gradientTransform="translate(6.7726,969.65)" gradientUnits="userSpaceOnUse"><stop id="stop4248" offset="0" stop-color="#fff"/><stop id="stop4250" offset="1" stop-color="#dcdcdc"/></linearGradient><linearGradient id="linearGradient4048" x1="24" x2="24" y1="5" y2="43" gradientTransform="translate(6.7726,969.65)" gradientUnits="userSpaceOnUse"><stop id="stop3310-1-4" offset="0" stop-color="#fff"/><stop id="stop3312-5-3" offset="1" stop-color="#fff" stop-opacity="0"/></linearGradient><radialGradient id="radialGradient3053" cx="4.993" cy="43.5" r="2.5" gradientTransform="matrix(2.0038,0,0,1.4,27.988,-17.4)" gradientUnits="userSpaceOnUse" xlink:href="#linearGradient3688-2"/><radialGradient id="radialGradient3055" cx="4.993" cy="43.5" r="2.5" gradientTransform="matrix(2.0038,0,0,1.4,-20.012,-104.4)" gradientUnits="userSpaceOnUse" xlink:href="#linearGradient3688-2"/><linearGradient id="linearGradient3057" x1="25.058" x2="25.058" y1="47.028" y2="39.999" gradientUnits="userSpaceOnUse" xlink:href="#linearGradient4040"/><radialGradient id="radialGradient3059" cx="12.011" cy="13.195" r="20" gradientTransform="matrix(5.6342e-8,1.6801,-2.4235,1.0381e-8,51.251,962.75)" gradientUnits="userSpaceOnUse" xlink:href="#radialGradient4042"/><linearGradient id="linearGradient3061" x1="24" x2="24" y1="44" y2="3.899" gradientTransform="translate(6.7726,969.65)" gradientUnits="userSpaceOnUse" xlink:href="#linearGradient4044"/><linearGradient id="linearGradient3063" x1="23.97" x2="23.97" y1="3.981" y2="44.024" gradientTransform="translate(6.7726,969.65)" gradientUnits="userSpaceOnUse" xlink:href="#linearGradient4046"/><linearGradient id="linearGradient3065" x1="24" x2="24" y1="5" y2="43" gradientTransform="translate(6.7726,969.65)" gradientUnits="userSpaceOnUse" xlink:href="#linearGradient4048"/><radialGradient id="radialGradient3096" cx="4.993" cy="43.5" r="2.5" gradientTransform="matrix(2.0038,0,0,1.4,27.988,-17.4)" gradientUnits="userSpaceOnUse" xlink:href="#linearGradient3688-2"/><radialGradient id="radialGradient3098" cx="4.993" cy="43.5" r="2.5" gradientTransform="matrix(2.0038,0,0,1.4,-20.012,-104.4)" gradientUnits="userSpaceOnUse" xlink:href="#linearGradient3688-2"/><linearGradient id="linearGradient3100" x1="25.058" x2="25.058" y1="47.028" y2="39.999" gradientUnits="userSpaceOnUse" xlink:href="#linearGradient4040"/><radialGradient id="radialGradient3102" cx="12.011" cy="13.195" r="20" gradientTransform="matrix(5.6342e-8,1.6801,-2.4235,1.0381e-8,51.251,962.75)" gradientUnits="userSpaceOnUse" xlink:href="#radialGradient4042"/><linearGradient id="linearGradient3104" x1="24" x2="24" y1="44" y2="3.899" gradientTransform="translate(6.7726,969.65)" gradientUnits="userSpaceOnUse" xlink:href="#linearGradient4044"/><linearGradient id="linearGradient3106" x1="23.97" x2="23.97" y1="3.981" y2="44.024" gradientTransform="translate(6.7726,969.65)" gradientUnits="userSpaceOnUse" xlink:href="#linearGradient4046"/><linearGradient id="linearGradient3108" x1="24" x2="24" y1="5" y2="43" gradientTransform="translate(6.7726,969.65)" gradientUnits="userSpaceOnUse" xlink:href="#linearGradient4048"/></defs><metadata id="metadata11042"/><path id="path3826" fill="#fff" fill-opacity="1" fill-rule="nonzero" stroke="none" d="M 48.71875 2.875 C 23.798133 2.4763415 3.2736585 22.360633 2.875 47.28125 C 2.4763415 72.201867 22.360633 92.726342 47.28125 93.125 C 72.201867 93.523658 92.726342 73.639367 93.125 48.71875 L 93.125 48.0625 C 93.161719 23.394013 73.384109 3.2695751 48.71875 2.875 z M 45.78125 19.9375 C 57.149385 19.9375 64.53125 24.673258 64.53125 34.40625 C 64.53125 50.601949 50.0625 48.511565 50.0625 61.28125 L 50.0625 62.84375 L 40.5 62.84375 L 40.5 61.28125 C 40.5 44.46264 55.125 44.921536 55.125 35.5 C 55.125 32.852626 53.563989 28.5 44.6875 28.5 C 41.806534 28.5 38.086962 29.362247 36.0625 30.21875 L 34.5625 30.75 L 31.46875 23.34375 L 32.78125 22.65625 C 36.830175 20.631788 41.42087 19.9375 45.78125 19.9375 z M 39.9375 66.96875 L 50.0625 66.96875 L 50.0625 76.0625 L 39.9375 76.0625 L 39.9375 66.96875 z"/></svg>