<svg xmlns="http://www.w3.org/2000/svg" xmlns:svg="http://www.w3.org/2000/svg" xmlns:xlink="http://www.w3.org/1999/xlink" id="svg11037" width="96" height="96" version="1.1"><defs id="defs11039"><linearGradient id="linearGradient11642" x1="48" x2="48" y1="962.62" y2="1046.1" gradientTransform="matrix(1.15,0,0,1.15,-7.1999,-150.65)" gradientUnits="userSpaceOnUse"><stop id="stop3702-1-3" offset="0" stop-color="#2e4f84"/><stop id="stop3704-8-8" offset="1" stop-color="#4c77c5"/></linearGradient><clipPath id="clipPath3009" clipPathUnits="userSpaceOnUse"><path id="path3011" fill="#fff" d="m-2 956.36h-96v33.562l96 25.687v-59.25z" opacity=".15"/></clipPath><linearGradient id="linearGradient2994" x1="48" x2="48" y1="962.62" y2="1046.1" gradientTransform="matrix(1.15,0,0,1.15,-7.1999,-1107.01)" gradientUnits="userSpaceOnUse" xlink:href="#linearGradient11642"/></defs><metadata id="metadata11042"/><path id="rect2988" fill="#fff" fill-opacity="1" fill-rule="nonzero" stroke="#fff" stroke-dasharray="none" stroke-miterlimit="4" stroke-opacity="1" stroke-width="3.393" d="M 12.125 3.875 C 7.5547758 3.875 3.875 7.4860314 3.875 11.96875 L 3.875 84.03125 C 3.875 88.513969 7.5547758 92.125 12.125 92.125 L 83.875 92.125 C 88.445224 92.125 92.125 88.513969 92.125 84.03125 L 92.125 11.96875 C 92.125 7.4860314 88.445224 3.875 83.875 3.875 L 12.125 3.875 z M 67.03125 12.875 L 76.71875 12.875 L 76.71875 24.96875 L 70.65625 24.96875 C 66.126732 24.96875 65.84375 26.685817 65.84375 29.84375 L 65.8125 35.3125 L 76.78125 35.3125 L 75.5 48 L 65.8125 48 L 65.8125 83.125 L 51.3125 83.125 L 51.3125 48 L 43.5 48 L 43.5 35.3125 L 51.3125 35.3125 L 51.3125 28.625 C 51.3125 18.749351 55.396815 12.875 67.03125 12.875 z"/></svg>