<svg xmlns="http://www.w3.org/2000/svg" xmlns:svg="http://www.w3.org/2000/svg" id="svg11811" width="23.331" height="18.69" version="1.1"><metadata id="metadata11816"/><g id="layer1" transform="translate(-394.04878,-271.58842)"><g id="ok_x5F_2" fill="#fff" transform="translate(46.224034,-751.3157)"><g id="ok_x5F_2_1_" fill="#fff"><path id="path8578" fill="#fff" d="m 371.008,1026.27 c 0.196,0.193 0.197,0.51 0.003,0.705 l -14.475,14.474 c -0.194,0.194 -0.513,0.194 -0.707,0 l -3.245,-3.246 c -0.195,-0.194 -0.514,-0.513 -0.707,-0.707 l -3.906,-3.907 c -0.195,-0.193 -0.195,-0.512 0,-0.707 l 3.246,-3.246 c 0.194,-0.194 0.513,-0.194 0.707,0 l 3.906,3.906 c 0.195,0.194 0.514,0.194 0.707,0 l 10.493,-10.492 c 0.194,-0.194 0.514,-0.195 0.71,0 l 3.268,3.222 z"/></g></g></g></svg>